<?xml version="1.0" encoding="UTF-8" standalone="no"?>
<svg
   width="16"
   height="16"
   fill="currentColor"
   class="bi bi-flower1"
   viewBox="0 0 16 16"
   version="1.1"
   id="svg4"
   sodipodi:docname="flower.svg"
   inkscape:version="1.1.2 (b8e25be833, 2022-02-05)"
   xmlns:inkscape="http://www.inkscape.org/namespaces/inkscape"
   xmlns:sodipodi="http://sodipodi.sourceforge.net/DTD/sodipodi-0.dtd"
   xmlns="http://www.w3.org/2000/svg"
   xmlns:svg="http://www.w3.org/2000/svg">
  <defs
     id="defs8" />
  <sodipodi:namedview
     id="namedview6"
     pagecolor="#505050"
     bordercolor="#eeeeee"
     borderopacity="1"
     inkscape:pageshadow="0"
     inkscape:pageopacity="0"
     inkscape:pagecheckerboard="0"
     showgrid="false"
     inkscape:zoom="36.725358"
     inkscape:cx="7.0251186"
     inkscape:cy="8.3593466"
     inkscape:window-width="1920"
     inkscape:window-height="1017"
     inkscape:window-x="-8"
     inkscape:window-y="-8"
     inkscape:window-maximized="1"
     inkscape:current-layer="svg4" />
  <g
     id="g3079"
     transform="matrix(0.97661324,0,0,0.97661324,0.18709409,0.18709409)">
    <path
       d="m 6.174,1.184 a 2,2 0 0 1 3.652,0 2,2 0 0 1 3.164,1.826 2,2 0 0 1 1.826,3.164 2,2 0 0 1 0,3.652 2,2 0 0 1 -1.826,3.164 2,2 0 0 1 -3.164,1.826 2,2 0 0 1 -3.652,0 A 2,2 0 0 1 3.01,12.99 2,2 0 0 1 1.184,9.826 2,2 0 0 1 1.184,6.174 2,2 0 0 1 3.01,3.01 2,2 0 0 1 6.174,1.184 Z M 8,1 A 1,1 0 0 0 7.002,2.03 l 0.01,0.091 C 7.024,2.198 7.041,2.297 7.066,2.417 7.115,2.658 7.188,2.959 7.279,3.304 7.461,3.992 7.707,4.817 7.955,5.618 L 8,5.762 8.045,5.618 C 8.293,4.818 8.539,3.992 8.721,3.304 8.812,2.959 8.885,2.658 8.934,2.417 A 4.997,4.997 0 0 0 8.998,2.031 L 9,2 A 1,1 0 0 0 8,1 Z M 2,9 2.03,8.998 2.121,8.988 A 4.99,4.99 0 0 0 2.417,8.934 C 2.658,8.885 2.959,8.812 3.304,8.721 A 60.59,60.59 0 0 0 5.618,8.045 L 5.762,8 5.618,7.955 A 60.59,60.59 0 0 0 3.304,7.279 16.705,16.705 0 0 0 2.417,7.066 4.99,4.99 0 0 0 2.031,7.002 L 2,7 A 1,1 0 1 0 2,9 Z M 9,14 8.998,13.97 A 5.005,5.005 0 0 0 8.934,13.584 16.398,16.398 0 0 0 8.721,12.696 60.582,60.582 0 0 0 8.045,10.382 L 8,10.238 7.955,10.382 c -0.248,0.8 -0.494,1.626 -0.676,2.314 -0.091,0.345 -0.164,0.646 -0.213,0.887 A 4.996,4.996 0 0 0 7.002,13.969 L 7,14 a 1,1 0 1 0 2,0 z M 3.304,11.866 3.329,11.849 A 5.001,5.001 0 0 0 3.632,11.601 C 3.816,11.437 4.04,11.224 4.293,10.972 A 60.614,60.614 0 0 0 5.96,9.23 L 6.063,9.119 5.916,9.152 A 60.88,60.88 0 0 0 3.573,9.724 C 3.229,9.817 2.933,9.904 2.699,9.982 A 5.063,5.063 0 0 0 2.332,10.12 l -0.027,0.014 a 1,1 0 1 0 1,1.732 z M 4.5,14.062 A 1,1 0 0 0 5.866,13.696 L 5.88,13.669 c 0.01,-0.02 0.021,-0.048 0.036,-0.084 a 5.09,5.09 0 0 0 0.102,-0.283 c 0.078,-0.233 0.165,-0.53 0.258,-0.874 A 60.6,60.6 0 0 0 6.848,10.085 L 6.881,9.938 6.771,10.04 a 60.848,60.848 0 0 0 -1.743,1.667 17.07,17.07 0 0 0 -0.629,0.66 5.06,5.06 0 0 0 -0.248,0.304 L 4.134,12.696 A 1,1 0 0 0 4.5,14.062 Z m 9.196,-8.196 a 1,1 0 0 0 -1,-1.732 L 12.671,4.151 A 4.951,4.951 0 0 0 12.368,4.399 16.69,16.69 0 0 0 11.707,5.028 60.72,60.72 0 0 0 10.04,6.77 L 9.938,6.881 10.085,6.848 a 60.6,60.6 0 0 0 2.342,-0.572 c 0.345,-0.093 0.642,-0.18 0.875,-0.258 A 4.993,4.993 0 0 0 13.669,5.88 0.53,0.53 0 0 0 13.696,5.866 Z M 11.5,1.938 A 1,1 0 0 0 10.134,2.304 L 10.12,2.331 c -0.01,0.02 -0.021,0.048 -0.036,0.084 A 5.09,5.09 0 0 0 9.982,2.698 C 9.904,2.931 9.817,3.228 9.724,3.573 A 60.62,60.62 0 0 0 9.152,5.915 L 9.119,6.062 9.229,5.96 A 60.848,60.848 0 0 0 10.972,4.293 C 11.224,4.04 11.437,3.816 11.601,3.633 A 5.001,5.001 0 0 0 11.849,3.329 L 11.866,3.304 A 1,1 0 0 0 11.5,1.938 Z M 14,9 A 1,1 0 0 0 14,7 L 13.97,7.002 A 4.996,4.996 0 0 0 13.584,7.066 C 13.342,7.115 13.041,7.188 12.696,7.279 12.008,7.461 11.183,7.707 10.382,7.955 L 10.238,8 10.382,8.045 c 0.8,0.248 1.626,0.494 2.314,0.676 0.345,0.091 0.646,0.164 0.887,0.213 a 4.996,4.996 0 0 0 0.386,0.064 z M 1.938,4.5 a 1,1 0 0 0 0.393,1.38 l 0.084,0.035 c 0.072,0.03 0.166,0.064 0.283,0.103 0.233,0.078 0.53,0.165 0.874,0.258 A 60.88,60.88 0 0 0 5.915,6.848 L 6.062,6.881 5.959,6.77 A 60.584,60.584 0 0 0 4.293,5.028 16.705,16.705 0 0 0 3.633,4.399 4.996,4.996 0 0 0 3.329,4.151 L 3.304,4.134 A 1,1 0 0 0 1.938,4.5 Z M 4.134,3.304 4.151,3.329 A 4.996,4.996 0 0 0 4.399,3.632 C 4.563,3.816 4.776,4.04 5.028,4.293 A 60.597,60.597 0 0 0 6.77,5.96 L 6.881,6.062 6.848,5.915 A 60.602,60.602 0 0 0 6.276,3.573 C 6.183,3.228 6.096,2.931 6.018,2.698 A 5.006,5.006 0 0 0 5.88,2.331 L 5.866,2.304 a 1,1 0 1 0 -1.732,1 z M 14.062,11.5 A 1,1 0 0 0 13.696,10.134 L 13.669,10.12 A 5,5 0 0 0 13.302,9.982 C 13.069,9.904 12.772,9.817 12.427,9.724 A 60.619,60.619 0 0 0 10.085,9.152 L 9.938,9.119 10.04,9.23 a 60.73,60.73 0 0 0 1.667,1.742 c 0.253,0.252 0.477,0.465 0.66,0.629 a 4.946,4.946 0 0 0 0.304,0.248 l 0.025,0.017 A 1,1 0 0 0 14.062,11.5 Z m -3.928,2.196 a 1,1 0 0 0 1.732,-1 L 11.849,12.671 A 5.065,5.065 0 0 0 11.601,12.368 16.705,16.705 0 0 0 10.972,11.707 60.462,60.462 0 0 0 9.23,10.04 L 9.119,9.938 9.152,10.085 a 60.6,60.6 0 0 0 0.572,2.342 c 0.093,0.345 0.18,0.642 0.258,0.875 a 4.985,4.985 0 0 0 0.138,0.367 0.575,0.575 0 0 0 0.014,0.027 z M 8,9.5 a 1.5,1.5 0 1 0 0,-3 1.5,1.5 0 0 0 0,3 z"
       id="path2481"
       style="fill:#000000;fill-opacity:1;stroke:#dde5b6;stroke-width:0.3;stroke-linecap:round;stroke-linejoin:round;stroke-miterlimit:4;stroke-dasharray:none;stroke-opacity:1" />
    <path
       d="m 6.174,1.184 a 2,2 0 0 1 3.652,0 2,2 0 0 1 3.164,1.826 2,2 0 0 1 1.826,3.164 2,2 0 0 1 0,3.652 2,2 0 0 1 -1.826,3.164 2,2 0 0 1 -3.164,1.826 2,2 0 0 1 -3.652,0 A 2,2 0 0 1 3.01,12.99 2,2 0 0 1 1.184,9.826 2,2 0 0 1 1.184,6.174 2,2 0 0 1 3.01,3.01 2,2 0 0 1 6.174,1.184 Z M 8,1 A 1,1 0 0 0 7.002,2.03 l 0.01,0.091 C 7.024,2.198 7.041,2.297 7.066,2.417 7.115,2.658 7.188,2.959 7.279,3.304 7.461,3.992 7.707,4.817 7.955,5.618 L 8,5.762 8.045,5.618 C 8.293,4.818 8.539,3.992 8.721,3.304 8.812,2.959 8.885,2.658 8.934,2.417 A 4.997,4.997 0 0 0 8.998,2.031 L 9,2 A 1,1 0 0 0 8,1 Z M 2,9 2.03,8.998 2.121,8.988 A 4.99,4.99 0 0 0 2.417,8.934 C 2.658,8.885 2.959,8.812 3.304,8.721 A 60.59,60.59 0 0 0 5.618,8.045 L 5.762,8 5.618,7.955 A 60.59,60.59 0 0 0 3.304,7.279 16.705,16.705 0 0 0 2.417,7.066 4.99,4.99 0 0 0 2.031,7.002 L 2,7 A 1,1 0 1 0 2,9 Z M 9,14 8.998,13.97 A 5.005,5.005 0 0 0 8.934,13.584 16.398,16.398 0 0 0 8.721,12.696 60.582,60.582 0 0 0 8.045,10.382 L 8,10.238 7.955,10.382 c -0.248,0.8 -0.494,1.626 -0.676,2.314 -0.091,0.345 -0.164,0.646 -0.213,0.887 A 4.996,4.996 0 0 0 7.002,13.969 L 7,14 a 1,1 0 1 0 2,0 z M 3.304,11.866 3.329,11.849 A 5.001,5.001 0 0 0 3.632,11.601 C 3.816,11.437 4.04,11.224 4.293,10.972 A 60.614,60.614 0 0 0 5.96,9.23 L 6.063,9.119 5.916,9.152 A 60.88,60.88 0 0 0 3.573,9.724 C 3.229,9.817 2.933,9.904 2.699,9.982 A 5.063,5.063 0 0 0 2.332,10.12 l -0.027,0.014 a 1,1 0 1 0 1,1.732 z M 4.5,14.062 A 1,1 0 0 0 5.866,13.696 L 5.88,13.669 c 0.01,-0.02 0.021,-0.048 0.036,-0.084 a 5.09,5.09 0 0 0 0.102,-0.283 c 0.078,-0.233 0.165,-0.53 0.258,-0.874 A 60.6,60.6 0 0 0 6.848,10.085 L 6.881,9.938 6.771,10.04 a 60.848,60.848 0 0 0 -1.743,1.667 17.07,17.07 0 0 0 -0.629,0.66 5.06,5.06 0 0 0 -0.248,0.304 L 4.134,12.696 A 1,1 0 0 0 4.5,14.062 Z m 9.196,-8.196 a 1,1 0 0 0 -1,-1.732 L 12.671,4.151 A 4.951,4.951 0 0 0 12.368,4.399 16.69,16.69 0 0 0 11.707,5.028 60.72,60.72 0 0 0 10.04,6.77 L 9.938,6.881 10.085,6.848 a 60.6,60.6 0 0 0 2.342,-0.572 c 0.345,-0.093 0.642,-0.18 0.875,-0.258 A 4.993,4.993 0 0 0 13.669,5.88 0.53,0.53 0 0 0 13.696,5.866 Z M 11.5,1.938 A 1,1 0 0 0 10.134,2.304 L 10.12,2.331 c -0.01,0.02 -0.021,0.048 -0.036,0.084 A 5.09,5.09 0 0 0 9.982,2.698 C 9.904,2.931 9.817,3.228 9.724,3.573 A 60.62,60.62 0 0 0 9.152,5.915 L 9.119,6.062 9.229,5.96 A 60.848,60.848 0 0 0 10.972,4.293 C 11.224,4.04 11.437,3.816 11.601,3.633 A 5.001,5.001 0 0 0 11.849,3.329 L 11.866,3.304 A 1,1 0 0 0 11.5,1.938 Z M 14,9 A 1,1 0 0 0 14,7 L 13.97,7.002 A 4.996,4.996 0 0 0 13.584,7.066 C 13.342,7.115 13.041,7.188 12.696,7.279 12.008,7.461 11.183,7.707 10.382,7.955 L 10.238,8 10.382,8.045 c 0.8,0.248 1.626,0.494 2.314,0.676 0.345,0.091 0.646,0.164 0.887,0.213 a 4.996,4.996 0 0 0 0.386,0.064 z M 1.938,4.5 a 1,1 0 0 0 0.393,1.38 l 0.084,0.035 c 0.072,0.03 0.166,0.064 0.283,0.103 0.233,0.078 0.53,0.165 0.874,0.258 A 60.88,60.88 0 0 0 5.915,6.848 L 6.062,6.881 5.959,6.77 A 60.584,60.584 0 0 0 4.293,5.028 16.705,16.705 0 0 0 3.633,4.399 4.996,4.996 0 0 0 3.329,4.151 L 3.304,4.134 A 1,1 0 0 0 1.938,4.5 Z M 4.134,3.304 4.151,3.329 A 4.996,4.996 0 0 0 4.399,3.632 C 4.563,3.816 4.776,4.04 5.028,4.293 A 60.597,60.597 0 0 0 6.77,5.96 L 6.881,6.062 6.848,5.915 A 60.602,60.602 0 0 0 6.276,3.573 C 6.183,3.228 6.096,2.931 6.018,2.698 A 5.006,5.006 0 0 0 5.88,2.331 L 5.866,2.304 a 1,1 0 1 0 -1.732,1 z M 14.062,11.5 A 1,1 0 0 0 13.696,10.134 L 13.669,10.12 A 5,5 0 0 0 13.302,9.982 C 13.069,9.904 12.772,9.817 12.427,9.724 A 60.619,60.619 0 0 0 10.085,9.152 L 9.938,9.119 10.04,9.23 a 60.73,60.73 0 0 0 1.667,1.742 c 0.253,0.252 0.477,0.465 0.66,0.629 a 4.946,4.946 0 0 0 0.304,0.248 l 0.025,0.017 A 1,1 0 0 0 14.062,11.5 Z m -3.928,2.196 a 1,1 0 0 0 1.732,-1 L 11.849,12.671 A 5.065,5.065 0 0 0 11.601,12.368 16.705,16.705 0 0 0 10.972,11.707 60.462,60.462 0 0 0 9.23,10.04 L 9.119,9.938 9.152,10.085 a 60.6,60.6 0 0 0 0.572,2.342 c 0.093,0.345 0.18,0.642 0.258,0.875 a 4.985,4.985 0 0 0 0.138,0.367 0.575,0.575 0 0 0 0.014,0.027 z M 8,9.5 a 1.5,1.5 0 1 0 0,-3 1.5,1.5 0 0 0 0,3 z"
       id="path2"
       style="fill:#000000;fill-opacity:1;stroke:#adc178;stroke-width:0.1;stroke-linecap:round;stroke-linejoin:round;stroke-miterlimit:4;stroke-dasharray:none;stroke-opacity:1" />
  </g>
</svg>
